<svg width="177" height="258" viewBox="0 0 177 258" fill="none" xmlns="http://www.w3.org/2000/svg">
<rect x="26.4146" y="15.1836" width="58.4579" height="7" rx="3.5" transform="rotate(15.1184 26.4146 15.1836)" fill="#6D6F7E"/>
<path d="M8.99999 234C8.14108 236.625 9.57233 239.449 12.1968 240.308C14.8212 241.167 17.6451 239.735 18.504 237.111L8.99999 234ZM63 69.0005L8.99999 234L18.504 237.111L72.5039 72.1109L63 69.0005Z" fill="#98A7B2"/>
<path d="M167.752 234.445C168.611 237.069 167.18 239.893 164.555 240.752C161.931 241.611 159.107 240.18 158.248 237.555L167.752 234.445ZM113.752 69.4448L167.752 234.445L158.248 237.555L104.248 72.5552L113.752 69.4448Z" fill="#98A7B2"/>
<path d="M84 236C84 238.761 86.2386 241 89 241C91.7614 241 94 238.761 94 236L84 236ZM84 71L84 236L94 236L94 71L84 71Z" fill="#98A7B2"/>
<rect x="8.49365" y="223" width="16.7628" height="29" rx="5" transform="rotate(17.0307 8.49365 223)" fill="#42484F"/>
<rect width="16.7628" height="29" rx="5" transform="matrix(-0.956148 0.292884 0.292884 0.956148 168.028 223)" fill="#42484F"/>
<rect width="16" height="29" rx="5" transform="matrix(-1 -8.74228e-08 -8.74228e-08 1 97 229)" fill="#42484F"/>
<rect x="53" y="62" width="71" height="11" rx="5.5" fill="#42484F"/>
<path d="M6.23381 13.1261C7.11001 9.88324 10.4492 7.9647 13.692 8.8409L36.4809 14.9983C37.5472 15.2865 38.1781 16.3845 37.8899 17.4508L35.7603 25.3327C35.4722 26.399 34.3742 27.0299 33.3079 26.7417L10.519 20.5843C7.27616 19.7081 5.3576 16.3689 6.23381 13.1261V13.1261Z" fill="#42484F"/>
<rect x="46" width="86" height="11" rx="5.5" fill="#6D6F7E"/>
<path d="M66 62C66 58.134 69.134 55 73 55H105C108.866 55 112 58.134 112 62V62H66V62Z" fill="#585B6C"/>
<path d="M62 11C62 14.866 65.134 18 69 18H109C112.866 18 116 14.866 116 11V11H62V11Z" fill="#585B6C"/>
<rect x="81" y="18" width="16" height="37" fill="#42484F"/>
<circle cx="89" cy="35" r="14" fill="#42484F"/>
<circle cx="89" cy="35" r="10" fill="#98A7B2"/>
</svg>
