<svg width="405" height="403" viewBox="0 0 405 403" fill="none" xmlns="http://www.w3.org/2000/svg">
<path d="M111.222 49.2746C138.975 49.2746 165.718 55.2239 192.799 55.9376C211.115 56.4203 228.622 46.3803 247.184 45.5347C285.362 43.7952 316.031 54.9884 352.069 64.8477C296.234 -4.50048 170.113 -30.6766 111.222 49.2746ZM52.9527 60.9544C70.4172 66.1134 85.9907 54.0435 99.5682 43.7142C119.426 28.6066 137.97 14.7015 161.722 6.44844C124.639 -4.5407 79.3188 40.3154 52.9527 60.9544ZM6.33713 154.393C28.1493 150.497 47.4144 138.552 68.4912 131.79C112.019 117.827 151.79 114.889 196.684 123.247C195.963 106.454 195.036 83.0177 183.034 69.9635C173.173 59.2379 155.97 57.8196 142.299 57.2146C108.687 55.7262 68.9573 61.299 41.7036 82.9021C21.2669 99.1016 10.0823 129.334 6.33713 154.393ZM200.569 64.8477C208.14 116.427 221.61 156.169 207.732 208.899C201.737 231.682 192.75 254.158 181.984 275.085C177.288 284.215 168.417 295.306 171.224 306.228C178.616 334.997 227.426 355.41 249.016 332.595C297.713 281.133 309.661 202.169 309.334 134.927C309.237 114.469 307.47 73.8362 288.287 61.0627C266.675 46.6715 223.559 60.0944 200.569 64.8477ZM301.569 60.9544C313.77 120.037 324.55 172.313 307.676 232.259C296.288 272.707 272.979 306.455 258.838 345.164C315.674 372.419 351.04 312.864 368.33 267.299C383.737 226.696 387.194 181.589 380.217 138.82C377.665 123.156 375.435 105.661 365.075 92.93C350.403 74.9006 322.756 67.8759 301.569 60.9544ZM383.146 115.46C386.945 163.657 396.548 207.627 382.334 255.619C373.065 286.914 354.116 312.239 340.415 341.271C362.025 331.086 373.901 311.821 383.981 290.658C406.819 242.722 417.086 160.934 383.146 115.46ZM10.2218 251.725C39.7694 243.194 65.7545 225.429 95.6836 217.305C129.397 208.154 158.766 211.328 192.799 212.793C194.323 193.441 206.228 156.506 194.187 139.709C179.104 118.669 132.887 125.97 111.222 130.286C76.6543 137.171 15.4936 152.073 2.09589 189.436C-1.94801 200.713 0.855527 212.955 2.26953 224.467C3.53204 234.744 5.76104 242.437 10.2218 251.725ZM126.761 218.395C95.9244 223.258 39.1156 235.854 21.0424 264.126C9.16669 282.704 37.1869 337.081 60.7371 332.295C73.1283 329.776 84.5751 317.289 95.6836 311.399C114.852 301.234 143.592 302.454 158.209 285.681C167.456 275.07 189.333 241.191 180.633 226.668C171.99 212.242 140.289 216.262 126.761 218.395ZM84.0297 333.484C129.943 422.189 243.942 416.844 317.107 368.524C303.589 365.269 288.475 368.796 274.376 368.467C255.977 368.038 237.426 363.633 219.992 357.818C204.025 352.492 189.896 343.88 177.276 332.767C168.602 325.128 160.279 312.726 148.959 308.932C128.005 301.91 99.9675 322.375 84.0297 333.484ZM68.4912 345.164C79.0205 366.76 101.409 378.708 122.876 387.99C109.381 371.27 89.3108 351.335 68.4912 345.164Z" fill="url(#paint0_linear_106_2)"/>
<defs>
<linearGradient id="paint0_linear_106_2" x1="50.0344" y1="173.046" x2="448.081" y2="65.485" gradientUnits="userSpaceOnUse">
<stop stop-color="#FF7E00"/>
<stop offset="0.651042" stop-color="#FF7E00" stop-opacity="0.33"/>
<stop offset="1" stop-color="#FF7E00"/>
</linearGradient>
</defs>
</svg>
