<svg width="130" height="65" viewBox="0 0 130 65" fill="none" xmlns="http://www.w3.org/2000/svg">
<g clip-path="url(#clip0_112_34)">
<path d="M109.65 65.0001V64.0371H104.622V65.0001H109.65Z" fill="#373737" fill-opacity="0.76"/>
<path d="M100.074 65.0001V64.0371H90.2579V65.0001H100.074Z" fill="#373737" fill-opacity="0.76"/>
<path d="M87.6245 65.0001V64.0371H77.8087V65.0001H87.6245Z" fill="#373737" fill-opacity="0.76"/>
<path d="M91.6943 0.962963V0L76.6115 0V0.962963L91.6943 0.962963Z" fill="#373737" fill-opacity="0.76"/>
<path d="M127.247 22.6296V11.5555C127.247 7.2344 123.763 3.73145 119.466 3.73145L108.932 3.73145C104.634 3.73145 101.151 7.2344 101.151 11.5555V22.6296C101.151 26.9507 104.634 30.4537 108.932 30.4537H119.466C123.763 30.4537 127.247 26.9507 127.247 22.6296Z" fill="#8C8C8C" stroke="black"/>
<path d="M130 55.1296V9.8703C130 4.95087 126.034 0.962891 121.142 0.962891L8.85819 0.962891C3.96594 0.962891 0 4.95087 0 9.8703V55.1296C0 60.049 3.96594 64.037 8.85819 64.037H121.142C126.034 64.037 130 60.049 130 55.1296Z" fill="black" fill-opacity="0.76"/>
<path d="M104.024 22.6295C104.024 25.2222 106.114 27.3239 108.692 27.3239C111.271 27.3239 113.361 25.2222 113.361 22.6295C113.361 20.0368 111.271 17.9351 108.692 17.9351C106.114 17.9351 104.024 20.0368 104.024 22.6295Z" fill="black" stroke="black"/>
<path d="M115.037 11.3151C115.037 13.9077 117.127 16.0095 119.706 16.0095C122.284 16.0095 124.374 13.9077 124.374 11.3151C124.374 8.72238 122.284 6.62061 119.706 6.62061C117.127 6.62061 115.037 8.72238 115.037 11.3151Z" fill="black" stroke="black"/>
<path d="M118.748 24.0739C118.748 25.6694 120.034 26.9628 121.621 26.9628C123.207 26.9628 124.494 25.6694 124.494 24.0739C124.494 22.4785 123.207 21.1851 121.621 21.1851C120.034 21.1851 118.748 22.4785 118.748 24.0739Z" fill="#D9D9D9"/>
<path d="M107.017 10.472C107.017 10.9373 107.392 11.3146 107.854 11.3146C108.317 11.3146 108.692 10.9373 108.692 10.472C108.692 10.0066 108.317 9.62939 107.854 9.62939C107.392 9.62939 107.017 10.0066 107.017 10.472Z" fill="#D9D9D9"/>
</g>
<defs>
<clipPath id="clip0_112_34">
<rect width="65" height="130" fill="white" transform="matrix(0 1 -1 0 130 0)"/>
</clipPath>
</defs>
</svg>
